<mxfile host="65bd71144e" scale="1" border="10">
    <diagram id="-rriOPSDnHkLpZKLwRpb" name="Page-1">
        <mxGraphModel dx="3340" dy="1646" grid="1" gridSize="10" guides="1" tooltips="1" connect="1" arrows="1" fold="1" page="1" pageScale="1" pageWidth="850" pageHeight="1100" background="#FFFFFF" math="0" shadow="0">
            <root>
                <mxCell id="0"/>
                <mxCell id="1" parent="0"/>
                <mxCell id="493" value="" style="shape=flexArrow;endArrow=classic;html=1;shadow=1;strokeColor=#FF0000;fontColor=#FF0000;fillColor=#FF0000;" parent="1" edge="1">
                    <mxGeometry width="50" height="50" relative="1" as="geometry">
                        <mxPoint x="-2220" y="-870.38" as="sourcePoint"/>
                        <mxPoint x="-2300" y="-870.38" as="targetPoint"/>
                    </mxGeometry>
                </mxCell>
                <mxCell id="494" value="" style="endArrow=oval;html=1;fillStyle=auto;strokeWidth=1;startSize=6;endSize=6;fillColor=#000000;startArrow=none;startFill=0;endFill=0;strokeColor=#FF0000;" parent="1" source="496" edge="1">
                    <mxGeometry width="50" height="50" relative="1" as="geometry">
                        <mxPoint x="-2386.87" y="-1314.0333333333335" as="sourcePoint"/>
                        <mxPoint x="-2380.93" y="-1020.69" as="targetPoint"/>
                    </mxGeometry>
                </mxCell>
                <mxCell id="495" value="&lt;font color=&quot;#ff0000&quot;&gt;data&lt;br&gt;inizio&lt;/font&gt;" style="edgeLabel;html=1;align=center;verticalAlign=middle;resizable=0;points=[];" parent="494" vertex="1" connectable="0">
                    <mxGeometry x="0.4791" y="1" relative="1" as="geometry">
                        <mxPoint x="-3" y="-28" as="offset"/>
                    </mxGeometry>
                </mxCell>
                <mxCell id="496" value="&lt;font color=&quot;#ff0000&quot;&gt;LIVE&lt;/font&gt;" style="whiteSpace=wrap;html=1;strokeColor=#FF0000;" parent="1" vertex="1">
                    <mxGeometry x="-2401.4700000000003" y="-989.9499999999999" width="80" height="40" as="geometry"/>
                </mxCell>
                <mxCell id="497" style="edgeStyle=none;shape=connector;rounded=1;fillStyle=auto;html=1;labelBackgroundColor=default;strokeColor=default;strokeWidth=1;fontFamily=Helvetica;fontSize=11;fontColor=default;endArrow=none;endFill=0;startSize=6;endSize=6;fillColor=#000000;startArrow=oval;startFill=0;" parent="1" target="496" edge="1">
                    <mxGeometry relative="1" as="geometry">
                        <mxPoint x="-2340.895872814796" y="-951.0599999999997" as="targetPoint"/>
                        <mxPoint x="-2340.93" y="-1010.69" as="sourcePoint"/>
                    </mxGeometry>
                </mxCell>
                <mxCell id="498" value="premium" style="edgeLabel;html=1;align=center;verticalAlign=middle;resizable=0;points=[];fontSize=11;fontFamily=Helvetica;fontColor=default;" parent="497" vertex="1" connectable="0">
                    <mxGeometry x="-0.2572" y="1" relative="1" as="geometry">
                        <mxPoint x="33" y="-8" as="offset"/>
                    </mxGeometry>
                </mxCell>
                <mxCell id="499" value="" style="endArrow=oval;html=1;fillStyle=auto;strokeWidth=1;startSize=6;endSize=6;fillColor=#000000;startArrow=none;startFill=0;endFill=0;" parent="1" source="496" edge="1">
                    <mxGeometry width="50" height="50" relative="1" as="geometry">
                        <mxPoint x="-2359.1404769412693" y="-979.9499999999999" as="sourcePoint"/>
                        <mxPoint x="-2400.9300000000003" y="-1010.69" as="targetPoint"/>
                    </mxGeometry>
                </mxCell>
                <mxCell id="500" value="data&lt;br&gt;fine" style="edgeLabel;html=1;align=center;verticalAlign=middle;resizable=0;points=[];" parent="499" vertex="1" connectable="0">
                    <mxGeometry x="0.4791" y="1" relative="1" as="geometry">
                        <mxPoint x="-25" y="-6" as="offset"/>
                    </mxGeometry>
                </mxCell>
                <mxCell id="501" value="&lt;font color=&quot;#ff0000&quot;&gt;(0, N)&lt;/font&gt;" style="edgeStyle=none;html=1;endArrow=none;endFill=0;exitX=0.5;exitY=1;exitDx=0;exitDy=0;strokeColor=#FF0000;" parent="1" target="504" edge="1">
                    <mxGeometry x="0.6553" y="-20" relative="1" as="geometry">
                        <mxPoint as="offset"/>
                        <mxPoint x="-2362.4500000000003" y="-949.9499999999998" as="sourcePoint"/>
                    </mxGeometry>
                </mxCell>
                <mxCell id="502" value="AFFLUENZA" style="whiteSpace=wrap;html=1;strokeColor=#000000;" parent="1" vertex="1">
                    <mxGeometry x="-2402.0600000000004" y="-809.7099999999999" width="80" height="39.62" as="geometry"/>
                </mxCell>
                <mxCell id="503" value="(1, 1)" style="edgeStyle=none;html=1;endArrow=none;endFill=0;strokeColor=#000000;" parent="1" source="504" target="502" edge="1">
                    <mxGeometry x="-0.4543" y="-19" relative="1" as="geometry">
                        <mxPoint as="offset"/>
                    </mxGeometry>
                </mxCell>
                <mxCell id="504" value="&lt;font color=&quot;#ff0000&quot;&gt;media&lt;br&gt;spettatori&lt;/font&gt;" style="rhombus;whiteSpace=wrap;html=1;strokeColor=#FF0000;" parent="1" vertex="1">
                    <mxGeometry x="-2411.78" y="-900.04" width="100.61" height="60" as="geometry"/>
                </mxCell>
                <mxCell id="505" value="" style="endArrow=none;html=1;strokeColor=#000000;fontSize=11;fontColor=#FF0000;exitX=0;exitY=0.25;exitDx=0;exitDy=0;entryX=1;entryY=1;entryDx=0;entryDy=0;" parent="1" source="502" target="506" edge="1">
                    <mxGeometry width="50" height="50" relative="1" as="geometry">
                        <mxPoint x="-2451.4700000000003" y="-770.17" as="sourcePoint"/>
                        <mxPoint x="-2431.86" y="-820.04" as="targetPoint"/>
                    </mxGeometry>
                </mxCell>
                <mxCell id="506" value="" style="ellipse;whiteSpace=wrap;html=1;aspect=fixed;strokeColor=#000000;fontSize=11;fontColor=#FF0000;" parent="1" vertex="1">
                    <mxGeometry x="-2435.1300000000006" y="-825.3" width="5.13" height="5.13" as="geometry"/>
                </mxCell>
                <mxCell id="507" value="" style="endArrow=none;html=1;strokeColor=#000000;fontSize=11;fontColor=#FF0000;exitX=0.5;exitY=-0.006;exitDx=0;exitDy=0;exitPerimeter=0;" parent="1" source="509" edge="1">
                    <mxGeometry width="50" height="50" relative="1" as="geometry">
                        <mxPoint x="-2382" y="-760" as="sourcePoint"/>
                        <mxPoint x="-2381.86" y="-770.04" as="targetPoint"/>
                    </mxGeometry>
                </mxCell>
                <mxCell id="508" value="" style="ellipse;whiteSpace=wrap;html=1;aspect=fixed;strokeColor=#000000;fontSize=11;fontColor=#FF0000;" parent="1" vertex="1">
                    <mxGeometry x="-2384.73" y="-749.78" width="5.74" height="5.74" as="geometry"/>
                </mxCell>
                <mxCell id="509" value="&lt;font color=&quot;#000000&quot; style=&quot;font-size: 11px;&quot;&gt;numero &lt;br&gt;spettatori&lt;/font&gt;" style="text;html=1;align=center;verticalAlign=middle;resizable=0;points=[];autosize=1;strokeColor=none;fillColor=none;fontSize=11;fontColor=#FF0000;" parent="1" vertex="1">
                    <mxGeometry x="-2416.78" y="-749.78" width="70" height="40" as="geometry"/>
                </mxCell>
                <mxCell id="510" value="&lt;font style=&quot;font-size: 11px;&quot; color=&quot;#000000&quot;&gt;timestamp&lt;/font&gt;" style="text;html=1;align=center;verticalAlign=middle;resizable=0;points=[];autosize=1;strokeColor=none;fillColor=none;fontSize=10;fontColor=#FF0000;" parent="1" vertex="1">
                    <mxGeometry x="-2500" y="-839.71" width="70" height="30" as="geometry"/>
                </mxCell>
                <mxCell id="511" value="" style="endArrow=none;html=1;strokeColor=#000000;fontSize=10;fontColor=#FF0000;" parent="1" edge="1">
                    <mxGeometry width="50" height="50" relative="1" as="geometry">
                        <mxPoint x="-2421.86" y="-790.04" as="sourcePoint"/>
                        <mxPoint x="-2341.86" y="-820.04" as="targetPoint"/>
                        <Array as="points">
                            <mxPoint x="-2421.86" y="-820.04"/>
                        </Array>
                    </mxGeometry>
                </mxCell>
                <mxCell id="512" value="" style="shape=waypoint;fillStyle=solid;size=6;pointerEvents=1;points=[];fillColor=none;resizable=0;rotatable=0;perimeter=centerPerimeter;snapToPoint=1;strokeColor=#000000;fontSize=10;fontColor=#FF0000;" parent="1" vertex="1">
                    <mxGeometry x="-2431.78" y="-799.9" width="20" height="20" as="geometry"/>
                </mxCell>
                <mxCell id="516" value="" style="shape=flexArrow;endArrow=classic;html=1;shadow=1;strokeColor=#FF0000;fontColor=#FF0000;fillColor=#FF0000;" parent="1" edge="1">
                    <mxGeometry width="50" height="50" relative="1" as="geometry">
                        <mxPoint x="-2220" y="-970" as="sourcePoint"/>
                        <mxPoint x="-2311.17" y="-970.29" as="targetPoint"/>
                    </mxGeometry>
                </mxCell>
                <mxCell id="517" value="" style="endArrow=classic;html=1;shadow=1;strokeColor=#FF0000;fontColor=#FF0000;fillColor=#FF0000;strokeWidth=4;" parent="1" edge="1">
                    <mxGeometry width="50" height="50" relative="1" as="geometry">
                        <mxPoint x="-2450" y="-1020" as="sourcePoint"/>
                        <mxPoint x="-2449.66" y="-860" as="targetPoint"/>
                    </mxGeometry>
                </mxCell>
            </root>
        </mxGraphModel>
    </diagram>
</mxfile>